<?xml version="1.0" encoding="UTF-8"?>
<!DOCTYPE svg PUBLIC "-//W3C//DTD SVG 1.1//EN" "http://www.w3.org/Graphics/SVG/1.1/DTD/svg11.dtd">
<svg version="1.1" xmlns="http://www.w3.org/2000/svg" xmlns:xlink="http://www.w3.org/1999/xlink" x="0" y="0" width="1048.056" height="249" viewBox="0, 0, 1048.056, 249">
  <g id="Layer_1">
    <path d="M158.968,24.8 C141.856,24.8 126.232,31.744 114.576,42.904 C103.168,31.744 87.544,24.8 70.184,24.8 C34.968,24.8 6.2,53.568 6.2,89.032 L6.2,186 L45.632,186 L45.632,89.032 C45.632,75.392 56.544,64.232 70.184,64.232 C83.824,64.232 94.984,75.392 94.984,89.032 L94.984,186 L134.416,186 L134.416,89.032 C134.416,75.392 145.328,64.232 158.968,64.232 C172.608,64.232 183.768,75.392 183.768,89.032 L183.768,186 L223.2,186 L223.2,89.032 C223.2,53.568 194.432,24.8 158.968,24.8 z" fill="#000000"/>
    <path d="M241.552,29.016 L241.552,186 L280.984,186 L280.984,29.016 z" fill="#000000"/>
    <path d="M299.336,29.016 L299.336,67.952 L334.552,67.952 L334.552,186 L373.488,186 L373.488,67.952 L408.704,67.952 L408.704,29.016 z" fill="#000000"/>
    <path d="M460.536,87.792 L460.536,29.016 L421.104,29.016 L421.104,186 L460.536,186 L460.536,127.224 L521.544,127.224 L521.544,186 L560.976,186 L560.976,29.016 L521.544,29.016 L521.544,87.792 z" fill="#000000"/>
    <path d="M676.544,132.928 C702.088,129.456 719.944,106.64 719.944,81.344 C719.944,53.32 698.368,29.016 669.848,29.016 L570.896,29.016 L570.896,186 L610.328,186 L610.328,68.448 L669.848,68.448 C676.544,68.448 680.76,75.392 680.76,81.344 C680.76,87.296 676.544,94.24 669.848,94.24 L620.992,94.24 L639.096,145.328 C646.536,167.152 669.104,186 692.912,186 L717.712,186 L717.712,146.568 L692.912,146.568 C683.984,146.568 679.768,140.616 676.544,132.928 z" fill="#000000"/>
    <path d="M804.512,25.296 C763.344,25.296 729.864,60.264 729.864,103.664 L729.864,186 L769.296,186 L769.296,150.536 L839.976,150.536 L839.976,186 L879.16,186 L879.16,103.664 C879.16,60.264 845.68,25.296 804.512,25.296 z M769.296,103.664 C769.296,82.088 785.168,64.48 804.512,64.48 C824.104,64.48 839.976,82.088 839.976,103.664 L839.976,111.352 L769.296,111.352 z" fill="#000000"/>
    <path d="M930.992,76.136 C930.992,71.672 934.464,68.2 938.68,68.2 L1029.2,68.2 L1029.2,28.768 L938.68,28.768 C912.888,28.768 891.56,50.096 891.56,76.136 L891.56,79.608 C891.56,105.648 912.888,126.976 938.68,126.976 L993.736,126.976 C1000.928,126.976 1001.672,133.176 1001.672,138.384 C1001.672,142.848 997.952,146.32 993.736,146.32 L903.464,146.32 L903.464,185.752 L993.736,185.752 C1019.776,185.752 1040.856,164.424 1040.856,138.384 L1040.856,134.912 C1040.856,108.872 1019.776,87.544 993.736,87.544 L938.68,87.544 C931.488,87.544 930.992,81.344 930.992,76.136 z" fill="#000000"/>
  </g>
</svg>
