<?xml version="1.0" encoding="UTF-8"?>
<!DOCTYPE svg PUBLIC "-//W3C//DTD SVG 1.1//EN" "http://www.w3.org/Graphics/SVG/1.1/DTD/svg11.dtd">
<svg version="1.1" xmlns="http://www.w3.org/2000/svg" xmlns:xlink="http://www.w3.org/1999/xlink" x="0" y="0" width="2218" height="1657.914" viewBox="0, 0, 2218, 1657.914">
  <g id="Layer_1">
    <g>
      <path d="M1569.482,756.379 C1736.551,787.47 1909.819,790.456 1968.362,728.418 C2020.551,673.114 1980.705,587.639 1921.615,504.293 C1881.062,445.552 1837.874,386.369 1787.053,331.285 C1726.439,265.586 1725.399,197.427 1785.742,121.578 C1819.349,78.385 1858.742,44.564 1909.382,28.957 C1847.24,100.396 1849.899,172.317 1906.324,241.722 C1958.445,305.834 2044.181,380.221 2126.516,470.216 C2201.662,552.351 2200.351,686.039 2097.682,761.185 C1996.313,832.231 1811.181,821.813 1569.482,756.379 z" fill="#000000"/>
      <path d="M1439.845,691.823 C1392.62,622.598 1341.191,458.062 1345.375,417.783 C1345.712,414.547 1349.534,413.034 1351.999,415.157 C1447.014,496.997 1545.01,559.302 1648.341,586.647 C1779.66,623.388 1884.131,630.49 1897.04,536.514 C1957.677,613.232 1966.589,672.503 1913.423,710.833 C1808.501,761.188 1645.947,741.918 1454.408,701.576 C1448.477,700.327 1443.261,696.83 1439.845,691.823 z" fill="#000000"/>
      <path d="M648.518,756.379 C481.449,787.47 308.181,790.456 249.638,728.418 C197.449,673.114 237.295,587.639 296.385,504.293 C336.938,445.552 380.126,386.369 430.947,331.285 C491.561,265.586 492.601,197.427 432.258,121.578 C398.651,78.385 359.258,44.564 308.618,28.957 C370.76,100.396 368.101,172.317 311.676,241.722 C259.555,305.834 173.819,380.221 91.484,470.216 C16.338,552.351 17.649,686.039 120.318,761.185 C221.687,832.231 406.819,821.813 648.518,756.379 z" fill="#000000"/>
      <path d="M778.154,691.823 C825.38,622.598 876.809,458.062 872.624,417.783 C872.288,414.547 868.466,413.034 866.001,415.157 C770.986,496.997 672.99,559.302 569.659,586.647 C438.34,623.388 333.869,630.49 320.96,536.514 C260.323,613.232 251.41,672.503 304.576,710.833 C409.499,761.188 572.053,741.918 763.592,701.576 C769.523,700.327 774.739,696.83 778.154,691.823 z" fill="#000000"/>
      <path d="M1463.536,756.379 C1375.721,721.318 1281.353,516.198 1312.809,410.362 C1249.762,401.686 1192.463,383.072 1140.456,355.314 L1128.332,1380.257 L1108.672,1380.257 L1089.012,1380.257 L1076.889,355.314 C1024.881,383.072 967.583,401.686 904.536,410.362 C935.992,516.198 841.623,721.318 753.809,756.379 C705.578,850.112 693.901,906.024 728.25,914.314 C763.311,843.866 921.247,848.453 971.38,895.31 C976.268,965.304 866.854,1009.993 756.43,969.363 C764.294,1030.964 865.871,1137.128 942.545,1254.433 C984.448,1313.248 1010.219,1373.083 998.249,1435.306 L1001.689,1435.142 C971.573,1490.79 970.806,1533.524 1010.454,1585.951 C1033.735,1616.736 1067.969,1628.962 1108.345,1628.957 L1109,1628.957 C1149.375,1628.962 1183.61,1616.735 1206.891,1585.951 C1246.538,1533.524 1245.772,1490.79 1215.656,1435.142 L1219.096,1435.306 C1207.126,1373.083 1232.896,1313.248 1274.8,1254.433 C1351.474,1137.128 1453.051,1030.964 1460.915,969.363 C1350.491,1009.993 1241.077,965.304 1245.965,895.31 C1296.098,848.453 1454.034,843.866 1489.094,914.314 C1523.444,906.024 1511.767,850.112 1463.536,756.379 z M1109.655,1575.547 L1107.689,1575.547 C1066.96,1576.062 1035.93,1549.989 1035.93,1505.099 C1035.93,1464.14 1066.156,1438.097 1108.672,1433.667 C1151.188,1438.097 1181.415,1464.14 1181.415,1505.099 C1181.415,1549.989 1150.385,1576.062 1109.655,1575.547 z" fill="#000000"/>
    </g>
    <path d="M744.44,132.8 C727.328,132.8 711.704,139.744 700.048,150.904 C688.64,139.744 673.016,132.8 655.656,132.8 C620.44,132.8 591.672,161.568 591.672,197.032 L591.672,294 L631.104,294 L631.104,197.032 C631.104,183.392 642.016,172.232 655.656,172.232 C669.296,172.232 680.456,183.392 680.456,197.032 L680.456,294 L719.888,294 L719.888,197.032 C719.888,183.392 730.8,172.232 744.44,172.232 C758.08,172.232 769.24,183.392 769.24,197.032 L769.24,294 L808.672,294 L808.672,197.032 C808.672,161.568 779.904,132.8 744.44,132.8 z" fill="#000000"/>
    <path d="M827.024,137.016 L827.024,294 L866.456,294 L866.456,137.016 z" fill="#000000"/>
    <path d="M884.808,137.016 L884.808,175.952 L920.024,175.952 L920.024,294 L958.96,294 L958.96,175.952 L994.176,175.952 L994.176,137.016 z" fill="#000000"/>
    <path d="M1046.008,195.792 L1046.008,137.016 L1006.576,137.016 L1006.576,294 L1046.008,294 L1046.008,235.224 L1107.016,235.224 L1107.016,294 L1146.448,294 L1146.448,137.016 L1107.016,137.016 L1107.016,195.792 z" fill="#000000"/>
    <path d="M1262.016,240.928 C1287.56,237.456 1305.416,214.64 1305.416,189.344 C1305.416,161.32 1283.84,137.016 1255.32,137.016 L1156.368,137.016 L1156.368,294 L1195.8,294 L1195.8,176.448 L1255.32,176.448 C1262.016,176.448 1266.232,183.392 1266.232,189.344 C1266.232,195.296 1262.016,202.24 1255.32,202.24 L1206.464,202.24 L1224.568,253.328 C1232.008,275.152 1254.576,294 1278.384,294 L1303.184,294 L1303.184,254.568 L1278.384,254.568 C1269.456,254.568 1265.24,248.616 1262.016,240.928 z" fill="#000000"/>
    <path d="M1389.984,133.296 C1348.816,133.296 1315.336,168.264 1315.336,211.664 L1315.336,294 L1354.768,294 L1354.768,258.536 L1425.448,258.536 L1425.448,294 L1464.632,294 L1464.632,211.664 C1464.632,168.264 1431.152,133.296 1389.984,133.296 z M1354.768,211.664 C1354.768,190.088 1370.64,172.48 1389.984,172.48 C1409.576,172.48 1425.448,190.088 1425.448,211.664 L1425.448,219.352 L1354.768,219.352 z" fill="#000000"/>
    <path d="M1516.464,184.136 C1516.464,179.672 1519.936,176.2 1524.152,176.2 L1614.672,176.2 L1614.672,136.768 L1524.152,136.768 C1498.36,136.768 1477.032,158.096 1477.032,184.136 L1477.032,187.608 C1477.032,213.648 1498.36,234.976 1524.152,234.976 L1579.208,234.976 C1586.4,234.976 1587.144,241.176 1587.144,246.384 C1587.144,250.848 1583.424,254.32 1579.208,254.32 L1488.936,254.32 L1488.936,293.752 L1579.208,293.752 C1605.248,293.752 1626.328,272.424 1626.328,246.384 L1626.328,242.912 C1626.328,216.872 1605.248,195.544 1579.208,195.544 L1524.152,195.544 C1516.96,195.544 1516.464,189.344 1516.464,184.136 z" fill="#000000"/>
  </g>
</svg>
