<?xml version="1.0" encoding="UTF-8"?>
<!DOCTYPE svg PUBLIC "-//W3C//DTD SVG 1.1//EN" "http://www.w3.org/Graphics/SVG/1.1/DTD/svg11.dtd">
<svg version="1.1" xmlns="http://www.w3.org/2000/svg" xmlns:xlink="http://www.w3.org/1999/xlink" x="0" y="0" width="2218" height="1657.914" viewBox="0, 0, 2218, 1657.914">
  <g id="Layer_1">
    <g>
      <path d="M1569.482,756.379 C1736.551,787.47 1909.819,790.456 1968.362,728.418 C2020.551,673.114 1980.705,587.639 1921.615,504.293 C1881.062,445.552 1837.874,386.369 1787.053,331.285 C1726.439,265.586 1725.399,197.427 1785.742,121.578 C1819.349,78.385 1858.742,44.564 1909.382,28.957 C1847.24,100.396 1849.899,172.317 1906.324,241.722 C1958.445,305.834 2044.181,380.221 2126.516,470.216 C2201.662,552.351 2200.351,686.039 2097.682,761.185 C1996.313,832.231 1811.181,821.813 1569.482,756.379 z" fill="#000000"/>
      <path d="M1439.845,691.823 C1392.62,622.598 1341.191,458.062 1345.375,417.783 C1345.712,414.547 1349.534,413.034 1351.999,415.157 C1447.014,496.997 1545.01,559.302 1648.341,586.647 C1779.66,623.388 1884.131,630.49 1897.04,536.514 C1957.677,613.232 1966.589,672.503 1913.423,710.833 C1808.501,761.188 1645.947,741.918 1454.408,701.576 C1448.477,700.327 1443.261,696.83 1439.845,691.823 z" fill="#000000"/>
      <path d="M648.518,756.379 C481.449,787.47 308.181,790.456 249.638,728.418 C197.449,673.114 237.295,587.639 296.385,504.293 C336.938,445.552 380.126,386.369 430.947,331.285 C491.561,265.586 492.601,197.427 432.258,121.578 C398.651,78.385 359.258,44.564 308.618,28.957 C370.76,100.396 368.101,172.317 311.676,241.722 C259.555,305.834 173.819,380.221 91.484,470.216 C16.338,552.351 17.649,686.039 120.318,761.185 C221.687,832.231 406.819,821.813 648.518,756.379 z" fill="#000000"/>
      <path d="M778.154,691.823 C825.38,622.598 876.809,458.062 872.624,417.783 C872.288,414.547 868.466,413.034 866.001,415.157 C770.986,496.997 672.99,559.302 569.659,586.647 C438.34,623.388 333.869,630.49 320.96,536.514 C260.323,613.232 251.41,672.503 304.576,710.833 C409.499,761.188 572.053,741.918 763.592,701.576 C769.523,700.327 774.739,696.83 778.154,691.823 z" fill="#000000"/>
      <path d="M1463.536,756.379 C1375.721,721.318 1281.353,516.198 1312.809,410.362 C1249.762,401.686 1192.463,383.072 1140.456,355.314 L1128.332,1380.257 L1108.672,1380.257 L1089.012,1380.257 L1076.889,355.314 C1024.881,383.072 967.583,401.686 904.536,410.362 C935.992,516.198 841.623,721.318 753.809,756.379 C705.578,850.112 693.901,906.024 728.25,914.314 C763.311,843.866 921.247,848.453 971.38,895.31 C976.268,965.304 866.854,1009.993 756.43,969.363 C764.294,1030.964 865.871,1137.128 942.545,1254.433 C984.448,1313.248 1010.219,1373.083 998.249,1435.306 L1001.689,1435.142 C971.573,1490.79 970.806,1533.524 1010.454,1585.951 C1033.735,1616.736 1067.969,1628.962 1108.345,1628.957 L1109,1628.957 C1149.375,1628.962 1183.61,1616.735 1206.891,1585.951 C1246.538,1533.524 1245.772,1490.79 1215.656,1435.142 L1219.096,1435.306 C1207.126,1373.083 1232.896,1313.248 1274.8,1254.433 C1351.474,1137.128 1453.051,1030.964 1460.915,969.363 C1350.491,1009.993 1241.077,965.304 1245.965,895.31 C1296.098,848.453 1454.034,843.866 1489.094,914.314 C1523.444,906.024 1511.767,850.112 1463.536,756.379 z M1109.655,1575.547 L1107.689,1575.547 C1066.96,1576.062 1035.93,1549.989 1035.93,1505.099 C1035.93,1464.14 1066.156,1438.097 1108.672,1433.667 C1151.188,1438.097 1181.415,1464.14 1181.415,1505.099 C1181.415,1549.989 1150.385,1576.062 1109.655,1575.547 z" fill="#000000"/>
    </g>
    <text transform="matrix(1, 0, 0, 1, 1109, 278.913)">
      <tspan x="-523.528" y="15.087" font-family="SpinCycleOT" font-size="248" fill="#000000">MITHRAS</tspan>
    </text>
  </g>
</svg>
